<?xml version="1.0" encoding="UTF-8"?>
<svg xmlns="http://www.w3.org/2000/svg" xmlns:xlink="http://www.w3.org/1999/xlink" width="254px" height="56px" viewBox="0 0 254 56" version="1.1">
<g id="surface1">
<path style=" stroke:none;fill-rule:nonzero;fill:rgb(0%,0%,0%);fill-opacity:1;" d="M 246.621094 27.503906 C 246.621094 28.066406 245.996094 28.511719 245.175781 28.511719 C 244.371094 28.511719 243.726562 28.070312 243.726562 27.503906 C 243.726562 26.953125 244.371094 26.507812 245.175781 26.507812 C 245.996094 26.507812 246.621094 26.953125 246.621094 27.503906 Z M 244.085938 27.503906 C 244.085938 27.945312 244.550781 28.296875 245.1875 28.296875 C 245.808594 28.296875 246.265625 27.945312 246.265625 27.503906 C 246.265625 27.0625 245.8125 26.707031 245.179688 26.707031 C 244.550781 26.707031 244.085938 27.066406 244.085938 27.503906 Z M 244.957031 28.023438 L 244.628906 28.023438 L 244.628906 27.03125 C 244.757812 27.011719 244.9375 27 245.171875 27 C 245.441406 27 245.558594 27.03125 245.660156 27.070312 C 245.734375 27.113281 245.796875 27.191406 245.796875 27.289062 C 245.796875 27.394531 245.679688 27.480469 245.507812 27.519531 L 245.507812 27.53125 C 245.644531 27.566406 245.722656 27.640625 245.761719 27.773438 C 245.808594 27.925781 245.832031 27.984375 245.863281 28.023438 L 245.511719 28.023438 C 245.46875 27.984375 245.441406 27.894531 245.402344 27.777344 C 245.375 27.671875 245.289062 27.621094 245.109375 27.621094 L 244.957031 27.621094 Z M 244.964844 27.457031 L 245.117188 27.457031 C 245.300781 27.457031 245.445312 27.414062 245.445312 27.3125 C 245.445312 27.222656 245.351562 27.160156 245.144531 27.160156 C 245.058594 27.160156 245 27.167969 244.964844 27.171875 Z M 244.964844 27.457031 "/>
<path style=" stroke:none;fill-rule:nonzero;fill:rgb(0%,0%,0%);fill-opacity:1;" d="M 155.847656 32.160156 C 155.847656 33.257812 155.878906 33.390625 156.824219 33.464844 L 157.222656 33.496094 C 157.3125 33.550781 157.285156 33.726562 157.195312 33.757812 C 156.351562 33.738281 155.863281 33.726562 155.265625 33.726562 C 154.644531 33.726562 154.109375 33.738281 153.457031 33.757812 C 153.371094 33.726562 153.339844 33.558594 153.425781 33.496094 L 153.734375 33.464844 C 154.597656 33.382812 154.625 33.257812 154.625 32.160156 L 154.625 28.304688 C 154.625 27.417969 154.597656 27.226562 153.929688 27.1875 L 153.398438 27.148438 C 153.289062 27.085938 153.308594 26.925781 153.425781 26.886719 C 154.210938 26.8125 155.128906 26.800781 156.359375 26.800781 C 157.589844 26.800781 158.507812 26.917969 159.203125 27.21875 C 159.886719 27.519531 160.390625 28.066406 160.390625 28.789062 C 160.390625 29.75 159.542969 30.230469 158.910156 30.449219 C 158.257812 30.667969 157.472656 30.761719 156.867188 30.761719 C 156.765625 30.730469 156.765625 30.574219 156.855469 30.554688 C 158.453125 30.347656 159.03125 29.707031 159.03125 28.800781 C 159.03125 27.785156 158.191406 27.128906 156.648438 27.128906 C 155.863281 27.128906 155.847656 27.167969 155.847656 27.503906 Z M 155.847656 32.160156 "/>
<path style=" stroke:none;fill-rule:nonzero;fill:rgb(0%,0%,0%);fill-opacity:1;" d="M 164.25 28.410156 C 164.25 27.417969 164.203125 27.242188 163.597656 27.1875 L 163.125 27.148438 C 163.019531 27.09375 163.019531 26.925781 163.136719 26.886719 C 163.964844 26.832031 164.988281 26.800781 166.441406 26.800781 C 167.359375 26.800781 168.230469 26.855469 168.914062 27.117188 C 169.625 27.378906 170.144531 27.847656 170.144531 28.578125 C 170.144531 29.570312 169.035156 30.117188 168.292969 30.324219 C 168.21875 30.386719 168.292969 30.492188 168.367188 30.574219 C 169.554688 31.921875 170.339844 32.761719 171.34375 33.355469 C 171.59375 33.511719 171.964844 33.625 172.367188 33.648438 C 172.441406 33.667969 172.457031 33.75 172.386719 33.792969 C 172.253906 33.824219 172.015625 33.847656 171.730469 33.847656 C 170.472656 33.847656 169.71875 33.585938 168.667969 32.53125 C 168.285156 32.144531 167.675781 31.421875 167.214844 30.953125 C 166.996094 30.722656 166.757812 30.617188 166.167969 30.617188 C 165.5 30.617188 165.46875 30.625 165.46875 30.847656 L 165.46875 32.164062 C 165.46875 33.261719 165.5 33.386719 166.359375 33.46875 L 166.675781 33.5 C 166.761719 33.554688 166.730469 33.730469 166.644531 33.761719 C 165.976562 33.738281 165.476562 33.730469 164.878906 33.730469 C 164.257812 33.730469 163.722656 33.738281 163.027344 33.761719 C 162.9375 33.730469 162.910156 33.574219 162.996094 33.5 L 163.367188 33.46875 C 164.226562 33.394531 164.257812 33.261719 164.257812 32.164062 L 164.257812 28.410156 Z M 165.460938 29.902344 C 165.460938 30.09375 165.460938 30.207031 165.503906 30.25 C 165.550781 30.28125 165.769531 30.300781 166.527344 30.300781 C 167.0625 30.300781 167.621094 30.261719 168.054688 30.03125 C 168.457031 29.8125 168.796875 29.445312 168.796875 28.734375 C 168.796875 27.910156 168.066406 27.125 166.421875 27.125 C 165.503906 27.125 165.460938 27.167969 165.460938 27.457031 Z M 165.460938 29.902344 "/>
<path style=" stroke:none;fill-rule:nonzero;fill:rgb(0%,0%,0%);fill-opacity:1;" d="M 174.070312 30.351562 C 174.070312 28.261719 176.292969 26.664062 179.34375 26.664062 C 182.765625 26.664062 184.484375 28.40625 184.484375 30.246094 C 184.484375 32.359375 182.207031 33.890625 179.34375 33.890625 C 176.054688 33.894531 174.070312 32.234375 174.070312 30.351562 Z M 183.003906 30.574219 C 183.003906 28.847656 181.921875 26.988281 179.09375 26.988281 C 177.554688 26.988281 175.550781 27.730469 175.550781 30.019531 C 175.550781 31.566406 176.617188 33.570312 179.539062 33.570312 C 181.316406 33.570312 183.003906 32.632812 183.003906 30.574219 Z M 183.003906 30.574219 "/>
<path style=" stroke:none;fill-rule:nonzero;fill:rgb(0%,0%,0%);fill-opacity:1;" d="M 188.542969 28.191406 C 188.542969 27.457031 188.46875 27.238281 187.84375 27.175781 L 187.519531 27.144531 C 187.398438 27.089844 187.386719 26.921875 187.535156 26.882812 C 188.792969 26.832031 189.992188 26.800781 191.253906 26.800781 C 192.496094 26.800781 193.550781 26.863281 194.511719 27.113281 C 196.515625 27.625 197.519531 28.816406 197.519531 30.195312 C 197.519531 31.523438 196.617188 32.664062 194.925781 33.3125 C 193.964844 33.679688 192.75 33.8125 191.609375 33.8125 C 190.664062 33.8125 189.714844 33.726562 189.195312 33.726562 C 188.574219 33.726562 188.039062 33.738281 187.34375 33.757812 C 187.253906 33.726562 187.222656 33.558594 187.3125 33.496094 L 187.652344 33.464844 C 188.511719 33.382812 188.542969 33.257812 188.542969 32.160156 Z M 189.753906 31.921875 C 189.753906 32.472656 189.800781 32.808594 190.050781 33.058594 C 190.375 33.382812 190.941406 33.488281 191.871094 33.488281 C 194.746094 33.488281 196.035156 32.160156 196.035156 30.21875 C 196.035156 29.066406 195.25 27.125 191.367188 27.125 C 190.496094 27.125 190.019531 27.210938 189.898438 27.273438 C 189.78125 27.335938 189.75 27.59375 189.75 28.066406 Z M 189.753906 31.921875 "/>
<path style=" stroke:none;fill-rule:nonzero;fill:rgb(0%,0%,0%);fill-opacity:1;" d="M 208.640625 29.457031 C 208.640625 28.808594 208.609375 27.605469 208.359375 27.292969 C 208.257812 27.167969 207.988281 27.09375 207.617188 27.074219 L 207.25 27.050781 C 207.160156 26.980469 207.191406 26.84375 207.277344 26.800781 C 207.84375 26.820312 208.390625 26.832031 208.96875 26.832031 C 209.589844 26.832031 209.992188 26.820312 210.523438 26.800781 C 210.644531 26.851562 210.628906 26.988281 210.554688 27.050781 L 210.199219 27.074219 C 209.828125 27.09375 209.53125 27.1875 209.457031 27.324219 C 209.238281 27.671875 209.25 28.871094 209.25 29.457031 L 209.25 30.636719 C 209.25 31.546875 209.042969 32.507812 208.214844 33.136719 C 207.578125 33.628906 206.480469 33.898438 205.382812 33.898438 C 204.359375 33.898438 203.339844 33.761719 202.613281 33.324219 C 201.828125 32.863281 201.457031 32.101562 201.457031 30.855469 L 201.457031 28.390625 C 201.457031 27.304688 201.425781 27.125 200.566406 27.074219 L 200.195312 27.050781 C 200.109375 27.011719 200.140625 26.832031 200.226562 26.800781 C 200.96875 26.820312 201.472656 26.832031 202.0625 26.832031 C 202.671875 26.832031 203.15625 26.820312 203.882812 26.800781 C 203.972656 26.832031 204.003906 27.007812 203.914062 27.050781 L 203.5625 27.074219 C 202.703125 27.125 202.671875 27.304688 202.671875 28.390625 L 202.671875 30.644531 C 202.671875 32.328125 203.410156 33.433594 205.679688 33.433594 C 207.824219 33.433594 208.640625 32.242188 208.640625 30.652344 Z M 208.640625 29.457031 "/>
<path style=" stroke:none;fill-rule:nonzero;fill:rgb(0%,0%,0%);fill-opacity:1;" d="M 214.726562 27.550781 C 215.808594 26.957031 217.1875 26.664062 218.726562 26.664062 C 219.523438 26.664062 220.652344 26.777344 221.347656 26.914062 C 221.523438 26.945312 221.628906 26.96875 221.761719 26.953125 C 221.773438 27.195312 221.847656 27.855469 221.96875 28.492188 C 221.894531 28.566406 221.671875 28.574219 221.566406 28.511719 C 221.347656 27.804688 220.675781 26.988281 218.53125 26.988281 C 216.265625 26.988281 214.339844 28.003906 214.339844 30.164062 C 214.339844 32.359375 216.308594 33.570312 218.738281 33.570312 C 220.648438 33.570312 221.496094 32.695312 221.835938 32.078125 C 221.941406 32.027344 222.160156 32.046875 222.21875 32.117188 C 222.113281 32.664062 221.730469 33.351562 221.507812 33.550781 C 221.328125 33.570312 221.152344 33.613281 220.988281 33.65625 C 220.664062 33.738281 219.59375 33.894531 218.648438 33.894531 C 217.316406 33.894531 216.042969 33.707031 214.960938 33.195312 C 213.773438 32.621094 212.855469 31.671875 212.855469 30.320312 C 212.863281 29.164062 213.601562 28.167969 214.726562 27.550781 Z M 214.726562 27.550781 "/>
<path style=" stroke:none;fill-rule:nonzero;fill:rgb(0%,0%,0%);fill-opacity:1;" d="M 229.449219 32.160156 C 229.449219 33.257812 229.480469 33.402344 230.335938 33.464844 L 230.8125 33.496094 C 230.902344 33.539062 230.871094 33.726562 230.78125 33.757812 C 229.941406 33.738281 229.4375 33.726562 228.84375 33.726562 C 228.25 33.726562 227.730469 33.738281 226.78125 33.757812 C 226.695312 33.726562 226.664062 33.550781 226.78125 33.496094 L 227.316406 33.464844 C 228.164062 33.414062 228.234375 33.257812 228.234375 32.160156 L 228.234375 27.488281 C 228.234375 27.167969 228.234375 27.152344 227.792969 27.152344 L 226.976562 27.152344 C 226.34375 27.152344 225.527344 27.175781 225.15625 27.414062 C 224.804688 27.644531 224.652344 27.875 224.488281 28.136719 C 224.371094 28.199219 224.164062 28.144531 224.105469 28.066406 C 224.34375 27.59375 224.566406 26.925781 224.671875 26.511719 C 224.714844 26.488281 224.910156 26.480469 224.953125 26.511719 C 225.042969 26.84375 225.53125 26.832031 226.210938 26.832031 L 232.207031 26.832031 C 233.003906 26.832031 233.140625 26.8125 233.363281 26.539062 C 233.4375 26.519531 233.601562 26.53125 233.628906 26.570312 C 233.464844 27 233.363281 27.847656 233.40625 28.160156 C 233.347656 28.246094 233.097656 28.246094 233.023438 28.183594 C 232.980469 27.921875 232.871094 27.535156 232.652344 27.421875 C 232.3125 27.242188 231.75 27.160156 230.933594 27.160156 L 229.878906 27.160156 C 229.433594 27.160156 229.449219 27.167969 229.449219 27.515625 Z M 229.449219 32.160156 "/>
<path style=" stroke:none;fill-rule:nonzero;fill:rgb(0%,0%,0%);fill-opacity:1;" d="M 238.574219 33.894531 C 237.332031 33.894531 236.546875 33.625 236.265625 33.511719 C 236.085938 33.28125 235.894531 32.539062 235.863281 32.046875 C 235.9375 31.972656 236.160156 31.953125 236.21875 32.015625 C 236.441406 32.546875 237.050781 33.570312 238.769531 33.570312 C 240.011719 33.570312 240.621094 32.996094 240.621094 32.371094 C 240.621094 31.910156 240.488281 31.402344 239.410156 30.910156 L 238 30.261719 C 237.261719 29.917969 236.402344 29.320312 236.402344 28.464844 C 236.402344 27.472656 237.5 26.664062 239.421875 26.664062 C 239.878906 26.664062 240.414062 26.71875 240.796875 26.800781 C 240.992188 26.832031 241.199219 26.863281 241.3125 26.863281 C 241.445312 27.117188 241.582031 27.703125 241.582031 28.140625 C 241.519531 28.203125 241.285156 28.234375 241.210938 28.171875 C 241.019531 27.671875 240.621094 26.988281 239.195312 26.988281 C 237.746094 26.988281 237.433594 27.667969 237.433594 28.148438 C 237.433594 28.757812 238.144531 29.183594 238.695312 29.433594 L 239.878906 29.957031 C 240.816406 30.363281 241.730469 30.972656 241.730469 31.964844 C 241.730469 33.113281 240.5 33.894531 238.574219 33.894531 Z M 238.574219 33.894531 "/>
<path style=" stroke:none;fill-rule:nonzero;fill:rgb(0%,0%,0%);fill-opacity:1;" d="M 13.625 19.445312 C 13.625 19.726562 13.671875 19.726562 14.117188 19.726562 L 15.121094 19.726562 C 15.730469 19.726562 16.203125 19.707031 16.378906 19.664062 C 16.539062 19.625 16.660156 19.570312 16.75 19.296875 L 16.878906 18.882812 C 16.957031 18.820312 17.207031 18.820312 17.265625 18.882812 C 17.265625 19.132812 17.207031 19.550781 17.207031 19.9375 C 17.207031 20.3125 17.265625 20.710938 17.265625 20.949219 C 17.207031 21.011719 16.980469 21.011719 16.878906 20.949219 L 16.730469 20.542969 C 16.671875 20.351562 16.535156 20.207031 16.253906 20.144531 C 16.046875 20.105469 15.675781 20.089844 15.113281 20.089844 L 14.105469 20.089844 C 13.660156 20.089844 13.617188 20.101562 13.617188 20.375 L 13.617188 21.828125 C 13.617188 22.925781 13.648438 23.082031 14.519531 23.132812 L 15.023438 23.164062 C 15.113281 23.207031 15.082031 23.394531 14.992188 23.425781 C 14.121094 23.40625 13.617188 23.394531 13.023438 23.394531 C 12.371094 23.394531 11.867188 23.40625 11.167969 23.425781 C 11.082031 23.394531 11.050781 23.226562 11.140625 23.164062 L 11.507812 23.132812 C 12.371094 23.058594 12.398438 22.925781 12.398438 21.828125 L 12.398438 18.066406 C 12.398438 16.96875 12.371094 16.820312 11.507812 16.75 L 11.269531 16.726562 C 11.183594 16.6875 11.214844 16.5 11.300781 16.46875 C 11.925781 16.488281 12.425781 16.5 13.023438 16.5 L 15.746094 16.5 C 16.695312 16.5 17.554688 16.5 17.746094 16.46875 C 17.746094 16.945312 17.757812 17.449219 17.789062 17.84375 C 17.746094 17.90625 17.539062 17.9375 17.429688 17.875 C 17.3125 17.40625 17.136719 17.03125 16.394531 16.882812 C 16.070312 16.832031 15.578125 16.820312 14.957031 16.820312 L 14.054688 16.820312 C 13.609375 16.820312 13.609375 16.84375 13.609375 17.238281 L 13.609375 19.445312 Z M 13.625 19.445312 "/>
<path style=" stroke:none;fill-rule:nonzero;fill:rgb(0%,0%,0%);fill-opacity:1;" d="M 20.644531 20.019531 C 20.644531 17.929688 22.867188 16.332031 25.921875 16.332031 C 29.34375 16.332031 31.0625 18.074219 31.0625 19.914062 C 31.0625 22.027344 28.78125 23.558594 25.921875 23.558594 C 22.628906 23.5625 20.644531 21.902344 20.644531 20.019531 Z M 29.574219 20.242188 C 29.574219 18.515625 28.496094 16.65625 25.664062 16.65625 C 24.125 16.65625 22.125 17.402344 22.125 19.6875 C 22.125 21.234375 23.191406 23.238281 26.109375 23.238281 C 27.890625 23.238281 29.574219 22.296875 29.574219 20.242188 Z M 29.574219 20.242188 "/>
<path style=" stroke:none;fill-rule:nonzero;fill:rgb(0%,0%,0%);fill-opacity:1;" d="M 35.117188 18.074219 C 35.117188 17.082031 35.074219 16.90625 34.464844 16.851562 L 33.988281 16.8125 C 33.890625 16.757812 33.890625 16.589844 34.003906 16.550781 C 34.832031 16.5 35.855469 16.46875 37.304688 16.46875 C 38.222656 16.46875 39.097656 16.519531 39.78125 16.78125 C 40.488281 17.042969 41.011719 17.511719 41.011719 18.242188 C 41.011719 19.234375 39.898438 19.78125 39.160156 19.988281 C 39.082031 20.050781 39.160156 20.15625 39.234375 20.242188 C 40.417969 21.589844 41.203125 22.425781 42.210938 23.019531 C 42.460938 23.175781 42.832031 23.289062 43.234375 23.3125 C 43.308594 23.332031 43.320312 23.417969 43.246094 23.457031 C 43.113281 23.488281 42.875 23.511719 42.59375 23.511719 C 41.332031 23.511719 40.578125 23.25 39.527344 22.195312 C 39.144531 21.808594 38.535156 21.085938 38.078125 20.617188 C 37.859375 20.386719 37.621094 20.28125 37.027344 20.28125 C 36.363281 20.28125 36.332031 20.289062 36.332031 20.511719 L 36.332031 21.828125 C 36.332031 22.925781 36.363281 23.050781 37.222656 23.132812 L 37.535156 23.164062 C 37.625 23.21875 37.59375 23.394531 37.503906 23.425781 C 36.839844 23.40625 36.335938 23.394531 35.742188 23.394531 C 35.117188 23.394531 34.585938 23.40625 33.890625 23.425781 C 33.800781 23.394531 33.769531 23.238281 33.859375 23.164062 L 34.226562 23.132812 C 35.089844 23.058594 35.117188 22.925781 35.117188 21.828125 Z M 36.332031 19.570312 C 36.332031 19.757812 36.332031 19.875 36.375 19.917969 C 36.417969 19.949219 36.640625 19.96875 37.398438 19.96875 C 37.933594 19.96875 38.496094 19.929688 38.925781 19.699219 C 39.324219 19.480469 39.664062 19.113281 39.664062 18.402344 C 39.664062 17.578125 38.9375 16.792969 37.296875 16.792969 C 36.378906 16.792969 36.335938 16.835938 36.335938 17.125 Z M 36.332031 19.570312 "/>
<path style=" stroke:none;fill-rule:nonzero;fill:rgb(0%,0%,0%);fill-opacity:1;" d="M 46.152344 18.066406 C 46.152344 16.980469 46.121094 16.820312 45.25 16.75 L 45.011719 16.726562 C 44.921875 16.6875 44.953125 16.5 45.039062 16.46875 C 45.675781 16.488281 46.179688 16.5 46.789062 16.5 L 49.570312 16.5 C 50.519531 16.5 51.390625 16.5 51.566406 16.46875 C 51.65625 16.644531 51.742188 17.398438 51.804688 17.859375 C 51.75 17.921875 51.511719 17.941406 51.433594 17.878906 C 51.214844 17.386719 51.078125 17.023438 50.308594 16.886719 C 49.996094 16.835938 49.527344 16.824219 48.871094 16.824219 L 47.804688 16.824219 C 47.359375 16.824219 47.359375 16.847656 47.359375 17.242188 L 47.359375 19.332031 C 47.359375 19.625 47.40625 19.625 47.851562 19.625 L 48.710938 19.625 C 49.332031 19.625 49.789062 19.601562 49.972656 19.5625 C 50.148438 19.523438 50.253906 19.457031 50.328125 19.195312 L 50.445312 18.765625 C 50.523438 18.703125 50.773438 18.703125 50.832031 18.777344 C 50.832031 19.027344 50.773438 19.433594 50.773438 19.832031 C 50.773438 20.207031 50.832031 20.605469 50.832031 20.832031 C 50.773438 20.90625 50.519531 20.90625 50.445312 20.839844 L 50.316406 20.433594 C 50.257812 20.246094 50.152344 20.089844 49.855469 20.035156 C 49.648438 19.996094 49.292969 19.984375 48.714844 19.984375 L 47.855469 19.984375 C 47.410156 19.984375 47.363281 19.992188 47.363281 20.265625 L 47.363281 21.742188 C 47.363281 22.292969 47.410156 22.648438 47.648438 22.828125 C 47.824219 22.949219 48.136719 23.066406 49.441406 23.066406 C 50.582031 23.066406 51.011719 23.023438 51.339844 22.910156 C 51.605469 22.804688 52.003906 22.441406 52.386719 21.894531 C 52.488281 21.84375 52.699219 21.875 52.757812 21.96875 C 52.65625 22.332031 52.285156 23.136719 52.09375 23.421875 C 50.761719 23.398438 49.441406 23.390625 48.125 23.390625 L 46.792969 23.390625 C 46.15625 23.390625 45.648438 23.398438 44.777344 23.421875 C 44.6875 23.390625 44.65625 23.222656 44.746094 23.160156 L 45.234375 23.128906 C 46.078125 23.074219 46.152344 22.917969 46.152344 21.820312 Z M 46.152344 18.066406 "/>
<path style=" stroke:none;fill-rule:nonzero;fill:rgb(0%,0%,0%);fill-opacity:1;" d="M 55.871094 17.605469 C 55.53125 17.019531 55.308594 16.800781 54.671875 16.75 L 54.402344 16.726562 C 54.300781 16.667969 54.316406 16.519531 54.433594 16.46875 C 54.867188 16.488281 55.335938 16.5 55.972656 16.5 C 56.625 16.5 57.140625 16.488281 57.761719 16.46875 C 57.863281 16.507812 57.894531 16.667969 57.792969 16.726562 L 57.574219 16.75 C 57.007812 16.804688 56.890625 16.867188 56.875 16.949219 C 56.90625 17.050781 57.160156 17.617188 57.617188 18.410156 C 58.296875 19.625 58.980469 20.824219 59.722656 22.015625 C 60.179688 21.328125 60.820312 20.25 61.140625 19.695312 C 61.585938 18.988281 62.265625 17.804688 62.515625 17.355469 C 62.636719 17.136719 62.648438 17.019531 62.648438 16.949219 C 62.648438 16.875 62.5 16.792969 61.984375 16.75 L 61.714844 16.726562 C 61.613281 16.667969 61.640625 16.511719 61.746094 16.46875 C 62.160156 16.488281 62.722656 16.5 63.285156 16.5 C 63.773438 16.5 64.230469 16.488281 64.722656 16.46875 C 64.824219 16.507812 64.824219 16.675781 64.753906 16.726562 L 64.308594 16.75 C 63.949219 16.773438 63.730469 16.894531 63.535156 17.117188 C 63.121094 17.609375 62.542969 18.457031 61.878906 19.523438 L 61.078125 20.808594 C 60.488281 21.769531 59.792969 22.980469 59.539062 23.535156 C 59.496094 23.558594 59.4375 23.566406 59.375 23.566406 C 59.300781 23.566406 59.226562 23.558594 59.15625 23.535156 C 58.992188 23.097656 58.742188 22.582031 58.476562 22.144531 Z M 55.871094 17.605469 "/>
<path style=" stroke:none;fill-rule:nonzero;fill:rgb(0%,0%,0%);fill-opacity:1;" d="M 67.777344 18.066406 C 67.777344 16.980469 67.746094 16.820312 66.875 16.75 L 66.636719 16.726562 C 66.546875 16.6875 66.578125 16.5 66.667969 16.46875 C 67.300781 16.488281 67.808594 16.5 68.414062 16.5 L 71.199219 16.5 C 72.148438 16.5 73.019531 16.5 73.195312 16.46875 C 73.285156 16.644531 73.375 17.398438 73.433594 17.859375 C 73.378906 17.921875 73.140625 17.941406 73.066406 17.878906 C 72.84375 17.386719 72.707031 17.023438 71.941406 16.886719 C 71.628906 16.835938 71.15625 16.824219 70.503906 16.824219 L 69.433594 16.824219 C 68.988281 16.824219 68.988281 16.847656 68.988281 17.242188 L 68.988281 19.332031 C 68.988281 19.625 69.035156 19.625 69.480469 19.625 L 70.339844 19.625 C 70.960938 19.625 71.417969 19.601562 71.597656 19.5625 C 71.773438 19.523438 71.878906 19.457031 71.953125 19.195312 L 72.074219 18.765625 C 72.148438 18.703125 72.398438 18.703125 72.457031 18.777344 C 72.457031 19.027344 72.398438 19.433594 72.398438 19.832031 C 72.398438 20.207031 72.457031 20.605469 72.457031 20.832031 C 72.398438 20.90625 72.144531 20.90625 72.074219 20.839844 L 71.941406 20.433594 C 71.882812 20.246094 71.777344 20.089844 71.480469 20.035156 C 71.273438 19.996094 70.917969 19.984375 70.339844 19.984375 L 69.480469 19.984375 C 69.035156 19.984375 68.988281 19.992188 68.988281 20.265625 L 68.988281 21.742188 C 68.988281 22.292969 69.035156 22.648438 69.273438 22.828125 C 69.449219 22.949219 69.761719 23.066406 71.0625 23.066406 C 72.203125 23.066406 72.632812 23.023438 72.957031 22.910156 C 73.222656 22.804688 73.625 22.441406 74.007812 21.894531 C 74.109375 21.84375 74.320312 21.875 74.378906 21.96875 C 74.277344 22.332031 73.90625 23.136719 73.714844 23.421875 C 72.382812 23.398438 71.0625 23.390625 69.746094 23.390625 L 68.414062 23.390625 C 67.777344 23.390625 67.269531 23.398438 66.398438 23.421875 C 66.308594 23.390625 66.277344 23.222656 66.367188 23.160156 L 66.855469 23.128906 C 67.699219 23.074219 67.773438 22.917969 67.773438 21.820312 Z M 67.777344 18.066406 "/>
<path style=" stroke:none;fill-rule:nonzero;fill:rgb(0%,0%,0%);fill-opacity:1;" d="M 77.910156 18.074219 C 77.910156 17.082031 77.867188 16.90625 77.257812 16.851562 L 76.78125 16.8125 C 76.679688 16.757812 76.679688 16.589844 76.796875 16.550781 C 77.625 16.5 78.648438 16.46875 80.097656 16.46875 C 81.015625 16.46875 81.886719 16.519531 82.570312 16.78125 C 83.28125 17.042969 83.800781 17.511719 83.800781 18.242188 C 83.800781 19.234375 82.691406 19.78125 81.949219 19.988281 C 81.875 20.050781 81.949219 20.15625 82.023438 20.242188 C 83.210938 21.589844 83.996094 22.425781 85 23.019531 C 85.253906 23.175781 85.625 23.289062 86.023438 23.3125 C 86.101562 23.332031 86.113281 23.417969 86.039062 23.457031 C 85.90625 23.488281 85.667969 23.511719 85.386719 23.511719 C 84.128906 23.511719 83.371094 23.25 82.320312 22.195312 C 81.9375 21.808594 81.328125 21.085938 80.871094 20.617188 C 80.648438 20.386719 80.410156 20.28125 79.816406 20.28125 C 79.148438 20.28125 79.121094 20.289062 79.121094 20.511719 L 79.121094 21.828125 C 79.121094 22.925781 79.148438 23.050781 80.011719 23.132812 L 80.320312 23.164062 C 80.40625 23.21875 80.375 23.394531 80.289062 23.425781 C 79.621094 23.40625 79.121094 23.394531 78.523438 23.394531 C 77.902344 23.394531 77.367188 23.40625 76.671875 23.425781 C 76.582031 23.394531 76.554688 23.238281 76.640625 23.164062 L 77.011719 23.132812 C 77.871094 23.058594 77.902344 22.925781 77.902344 21.828125 L 77.902344 18.074219 Z M 79.125 19.570312 C 79.125 19.757812 79.125 19.875 79.167969 19.917969 C 79.210938 19.949219 79.4375 19.96875 80.191406 19.96875 C 80.722656 19.96875 81.289062 19.929688 81.714844 19.699219 C 82.117188 19.480469 82.457031 19.113281 82.457031 18.402344 C 82.457031 17.578125 81.730469 16.792969 80.089844 16.792969 C 79.171875 16.792969 79.128906 16.835938 79.128906 17.125 L 79.128906 19.570312 Z M 79.125 19.570312 "/>
<path style=" stroke:none;fill-rule:nonzero;fill:rgb(0%,0%,0%);fill-opacity:1;" d="M 46.335938 28.40625 C 46.335938 27.304688 46.304688 27.140625 45.375 27.089844 L 45.003906 27.066406 C 44.917969 27.023438 44.949219 26.835938 45.035156 26.804688 C 45.867188 26.828125 46.367188 26.835938 46.964844 26.835938 C 47.542969 26.835938 48.042969 26.828125 48.785156 26.804688 C 48.871094 26.835938 48.902344 27.027344 48.816406 27.066406 L 48.457031 27.089844 C 47.585938 27.140625 47.554688 27.304688 47.554688 28.40625 L 47.554688 32.042969 C 47.554688 32.699219 47.597656 32.972656 47.867188 33.171875 C 48.03125 33.285156 48.3125 33.410156 49.480469 33.410156 C 50.738281 33.410156 51.050781 33.371094 51.289062 33.273438 C 51.585938 33.148438 51.96875 32.773438 52.269531 32.238281 C 52.355469 32.183594 52.640625 32.226562 52.640625 32.300781 C 52.640625 32.414062 52.222656 33.480469 52.015625 33.761719 C 51.261719 33.738281 49.855469 33.730469 48.332031 33.730469 L 46.96875 33.730469 C 46.347656 33.730469 45.871094 33.738281 45.039062 33.761719 C 44.953125 33.730469 44.921875 33.5625 45.011719 33.5 L 45.457031 33.46875 C 46.316406 33.40625 46.347656 33.261719 46.347656 32.164062 L 46.347656 28.40625 Z M 46.335938 28.40625 "/>
<path style=" stroke:none;fill-rule:nonzero;fill:rgb(0%,0%,0%);fill-opacity:1;" d="M 56.011719 28.421875 C 56.011719 27.316406 55.980469 27.136719 55.109375 27.085938 L 54.738281 27.066406 C 54.648438 27.023438 54.679688 26.835938 54.769531 26.804688 C 55.507812 26.828125 56.011719 26.835938 56.632812 26.835938 C 57.226562 26.835938 57.730469 26.828125 58.46875 26.804688 C 58.558594 26.835938 58.585938 27.027344 58.5 27.066406 L 58.128906 27.089844 C 57.253906 27.140625 57.226562 27.320312 57.226562 28.425781 L 57.226562 32.148438 C 57.226562 33.253906 57.253906 33.402344 58.128906 33.476562 L 58.5 33.507812 C 58.585938 33.546875 58.558594 33.738281 58.46875 33.769531 C 57.726562 33.746094 57.226562 33.738281 56.628906 33.738281 C 56.007812 33.738281 55.503906 33.746094 54.765625 33.769531 C 54.675781 33.738281 54.644531 33.570312 54.734375 33.507812 L 55.105469 33.476562 C 55.976562 33.402344 56.007812 33.253906 56.007812 32.148438 L 56.007812 28.421875 Z M 56.011719 28.421875 "/>
<path style=" stroke:none;fill-rule:nonzero;fill:rgb(0%,0%,0%);fill-opacity:1;" d="M 62.085938 27.945312 C 61.746094 27.359375 61.519531 27.136719 60.886719 27.089844 L 60.621094 27.066406 C 60.515625 27.003906 60.53125 26.859375 60.652344 26.804688 C 61.078125 26.828125 61.554688 26.835938 62.191406 26.835938 C 62.84375 26.835938 63.359375 26.828125 63.980469 26.804688 C 64.085938 26.847656 64.113281 27.003906 64.011719 27.066406 L 63.792969 27.089844 C 63.226562 27.140625 63.109375 27.203125 63.09375 27.289062 C 63.125 27.390625 63.375 27.957031 63.835938 28.75 C 64.515625 29.964844 65.199219 31.164062 65.9375 32.355469 C 66.398438 31.664062 67.035156 30.589844 67.363281 30.035156 C 67.808594 29.324219 68.488281 28.144531 68.738281 27.695312 C 68.859375 27.472656 68.871094 27.359375 68.871094 27.289062 C 68.871094 27.210938 68.722656 27.128906 68.207031 27.089844 L 67.941406 27.066406 C 67.839844 27.003906 67.867188 26.847656 67.972656 26.804688 C 68.386719 26.828125 68.949219 26.835938 69.511719 26.835938 C 70 26.835938 70.457031 26.828125 70.949219 26.804688 C 71.050781 26.847656 71.050781 27.015625 70.980469 27.066406 L 70.535156 27.089844 C 70.175781 27.109375 69.957031 27.234375 69.761719 27.457031 C 69.347656 27.945312 68.769531 28.792969 68.105469 29.859375 L 67.304688 31.144531 C 66.714844 32.105469 66.019531 33.320312 65.765625 33.875 C 65.722656 33.894531 65.660156 33.90625 65.601562 33.90625 C 65.527344 33.90625 65.453125 33.894531 65.382812 33.875 C 65.21875 33.433594 64.96875 32.921875 64.703125 32.484375 Z M 62.085938 27.945312 "/>
<path style=" stroke:none;fill-rule:nonzero;fill:rgb(0%,0%,0%);fill-opacity:1;" d="M 73.996094 28.421875 C 73.996094 27.316406 73.964844 27.136719 73.089844 27.085938 L 72.722656 27.066406 C 72.632812 27.023438 72.664062 26.835938 72.75 26.804688 C 73.492188 26.828125 73.996094 26.835938 74.617188 26.835938 C 75.207031 26.835938 75.714844 26.828125 76.457031 26.804688 C 76.542969 26.835938 76.574219 27.027344 76.488281 27.066406 L 76.117188 27.089844 C 75.242188 27.140625 75.210938 27.320312 75.210938 28.425781 L 75.210938 32.148438 C 75.210938 33.253906 75.242188 33.402344 76.117188 33.476562 L 76.488281 33.507812 C 76.574219 33.546875 76.542969 33.738281 76.457031 33.769531 C 75.714844 33.746094 75.210938 33.738281 74.617188 33.738281 C 73.996094 33.738281 73.492188 33.746094 72.75 33.769531 C 72.664062 33.738281 72.632812 33.570312 72.722656 33.507812 L 73.089844 33.476562 C 73.964844 33.402344 73.996094 33.253906 73.996094 32.148438 Z M 73.996094 28.421875 "/>
<path style=" stroke:none;fill-rule:nonzero;fill:rgb(0%,0%,0%);fill-opacity:1;" d="M 88.449219 31.957031 C 88.449219 32.273438 88.449219 33.511719 88.496094 33.785156 C 88.464844 33.847656 88.375 33.902344 88.210938 33.902344 C 88.035156 33.722656 87.605469 33.355469 86.316406 32.324219 L 82.878906 29.566406 C 82.480469 29.242188 81.472656 28.382812 81.160156 28.15625 L 81.128906 28.15625 C 81.074219 28.28125 81.054688 28.523438 81.054688 28.832031 L 81.054688 31.109375 C 81.054688 31.601562 81.085938 32.960938 81.320312 33.273438 C 81.425781 33.386719 81.703125 33.449219 82.074219 33.472656 L 82.53125 33.503906 C 82.621094 33.585938 82.605469 33.710938 82.5 33.765625 C 81.835938 33.742188 81.316406 33.734375 80.769531 33.734375 C 80.148438 33.734375 79.746094 33.742188 79.230469 33.765625 C 79.125 33.710938 79.109375 33.566406 79.199219 33.503906 L 79.601562 33.472656 C 79.9375 33.449219 80.175781 33.378906 80.253906 33.265625 C 80.460938 32.886719 80.445312 31.613281 80.445312 31.109375 L 80.445312 28.089844 C 80.445312 27.796875 80.433594 27.578125 80.121094 27.335938 C 79.914062 27.191406 79.554688 27.121094 79.203125 27.089844 L 78.957031 27.066406 C 78.867188 27.003906 78.867188 26.847656 78.988281 26.804688 C 79.609375 26.835938 80.394531 26.835938 80.664062 26.835938 C 80.902344 26.835938 81.152344 26.828125 81.339844 26.804688 C 81.636719 27.335938 83.402344 28.71875 83.871094 29.105469 L 85.308594 30.242188 C 86.316406 31.058594 87.058594 31.632812 87.753906 32.132812 L 87.785156 32.132812 C 87.839844 32.082031 87.839844 31.914062 87.839844 31.695312 L 87.839844 29.460938 C 87.839844 28.96875 87.828125 27.609375 87.546875 27.296875 C 87.457031 27.203125 87.21875 27.140625 86.628906 27.089844 L 86.378906 27.066406 C 86.277344 27.003906 86.289062 26.835938 86.410156 26.804688 C 87.085938 26.828125 87.59375 26.835938 88.15625 26.835938 C 88.789062 26.835938 89.179688 26.828125 89.679688 26.804688 C 89.800781 26.859375 89.800781 27.003906 89.710938 27.066406 L 89.503906 27.089844 C 89.03125 27.140625 88.734375 27.226562 88.675781 27.304688 C 88.421875 27.683594 88.453125 28.976562 88.453125 29.460938 L 88.453125 31.957031 Z M 88.449219 31.957031 "/>
<path style=" stroke:none;fill-rule:nonzero;fill:rgb(0%,0%,0%);fill-opacity:1;" d="M 101.261719 32.667969 C 101.261719 33.082031 101.347656 33.335938 101.617188 33.40625 C 101.660156 33.4375 101.660156 33.5 101.601562 33.53125 C 101.421875 33.53125 101.15625 33.570312 100.875 33.625 C 100.09375 33.769531 99.023438 33.894531 98.226562 33.894531 C 96.460938 33.894531 94.847656 33.550781 93.707031 32.734375 C 92.816406 32.105469 92.34375 31.28125 92.34375 30.363281 C 92.34375 29.476562 92.757812 28.574219 93.675781 27.886719 C 94.667969 27.15625 96.136719 26.664062 98.371094 26.664062 C 99.214844 26.664062 100 26.78125 100.253906 26.820312 C 100.539062 26.863281 100.996094 26.9375 101.171875 26.914062 C 101.171875 27.257812 101.261719 27.804688 101.394531 28.429688 C 101.347656 28.511719 101.078125 28.523438 100.992188 28.460938 C 100.578125 27.332031 99.464844 26.976562 97.953125 26.976562 C 95.078125 26.976562 93.820312 28.421875 93.820312 29.988281 C 93.820312 31.996094 95.289062 33.570312 98.265625 33.570312 C 99.183594 33.570312 99.730469 33.433594 99.894531 33.257812 C 99.96875 33.183594 100.042969 32.996094 100.042969 32.664062 L 100.042969 32.246094 C 100.042969 31.371094 100 31.308594 99.082031 31.234375 L 98.429688 31.179688 C 98.308594 31.140625 98.328125 30.949219 98.429688 30.917969 C 98.855469 30.941406 99.671875 30.949219 100.546875 30.949219 C 101.125 30.949219 101.625 30.941406 102.117188 30.917969 C 102.222656 30.957031 102.234375 31.117188 102.128906 31.179688 L 101.890625 31.203125 C 101.269531 31.253906 101.25 31.546875 101.25 32.078125 L 101.25 32.667969 Z M 101.261719 32.667969 "/>
<path style=" stroke:none;fill-rule:nonzero;fill:rgb(0%,0%,0%);fill-opacity:1;" d="M 145.175781 35.589844 C 145.089844 35.570312 144.996094 35.539062 144.921875 35.433594 C 144.921875 35.433594 144.882812 35.542969 144.820312 35.632812 C 144.683594 35.664062 143.632812 35.875 143.292969 35.949219 C 143.167969 35.941406 142.917969 35.914062 142.796875 35.804688 C 142.796875 35.804688 142.796875 35.992188 142.734375 36.089844 C 142.390625 36.183594 142.027344 36.292969 141.65625 36.429688 C 141.640625 36.4375 141.621094 36.445312 141.605469 36.449219 C 141.515625 36.460938 141.203125 36.476562 141.027344 36.367188 C 141.027344 36.367188 141.082031 36.597656 141.007812 36.6875 C 140.65625 36.835938 140.265625 37.011719 139.851562 37.203125 C 139.726562 37.214844 139.46875 37.222656 139.316406 37.132812 C 139.316406 37.132812 139.382812 37.363281 139.3125 37.453125 C 139.117188 37.542969 138.925781 37.636719 138.722656 37.734375 L 136.75 38.707031 C 136.445312 38.859375 136.140625 39.011719 135.832031 39.167969 C 135.699219 39.179688 135.484375 39.179688 135.339844 39.09375 C 135.339844 39.09375 135.40625 39.332031 135.335938 39.417969 C 135.183594 39.496094 135.03125 39.570312 134.878906 39.648438 L 132.566406 40.808594 C 132.433594 40.816406 132.214844 40.816406 132.078125 40.734375 C 132.078125 40.734375 132.140625 40.945312 132.089844 41.042969 C 131.730469 41.214844 131.386719 41.382812 131.058594 41.539062 C 130.9375 41.550781 130.671875 41.5625 130.511719 41.472656 C 130.511719 41.472656 130.582031 41.71875 130.5 41.800781 C 130.339844 41.875 130.183594 41.945312 130.035156 42.011719 C 129.910156 42.070312 129.785156 42.117188 129.667969 42.171875 C 129.59375 42.199219 129.511719 42.226562 129.4375 42.253906 C 129.304688 42.253906 129.09375 42.246094 128.960938 42.160156 C 128.960938 42.160156 128.992188 42.308594 128.964844 42.414062 C 128.464844 42.582031 127.988281 42.71875 127.546875 42.832031 C 127.414062 42.816406 127.230469 42.785156 127.125 42.695312 C 127.125 42.695312 127.125 42.84375 127.078125 42.941406 C 125.054688 43.398438 123.710938 43.332031 122.894531 43.300781 C 122.894531 43.300781 126.488281 44.257812 131.886719 41.550781 C 136.617188 39.179688 141.222656 36.230469 145.625 35.574219 C 145.625 35.574219 145.3125 35.589844 145.175781 35.589844 Z M 145.175781 35.589844 "/>
<path style=" stroke:none;fill-rule:nonzero;fill:rgb(0%,0%,0%);fill-opacity:1;" d="M 148.601562 35.195312 C 148.328125 35.164062 147.703125 35.082031 146.820312 35.074219 C 146.6875 35.039062 146.378906 34.9375 146.285156 34.761719 C 146.285156 34.761719 146.171875 35 146.042969 35.089844 C 145.5 35.113281 144.886719 35.171875 144.214844 35.28125 C 144.0625 35.261719 143.761719 35.210938 143.621094 35.070312 C 143.621094 35.070312 143.59375 35.296875 143.5 35.410156 C 143.058594 35.5 142.605469 35.613281 142.125 35.753906 C 142.101562 35.757812 142.078125 35.769531 142.058594 35.773438 C 141.949219 35.777344 141.5625 35.78125 141.359375 35.632812 C 141.359375 35.632812 141.390625 35.917969 141.289062 36.023438 C 140.828125 36.179688 140.328125 36.363281 139.785156 36.566406 C 139.628906 36.570312 139.316406 36.566406 139.136719 36.445312 C 139.136719 36.445312 139.183594 36.734375 139.085938 36.839844 C 138.835938 36.9375 138.578125 37.039062 138.320312 37.144531 L 135.753906 38.195312 L 135.753906 38.199219 C 135.355469 38.363281 134.960938 38.53125 134.558594 38.699219 C 134.394531 38.699219 134.125 38.683594 133.964844 38.570312 C 133.964844 38.570312 134.011719 38.871094 133.910156 38.96875 C 133.710938 39.054688 133.511719 39.132812 133.320312 39.21875 L 130.296875 40.480469 C 130.132812 40.480469 129.875 40.460938 129.714844 40.351562 C 129.714844 40.351562 129.761719 40.617188 129.679688 40.730469 C 129.214844 40.921875 128.769531 41.101562 128.335938 41.269531 C 128.1875 41.273438 127.859375 41.269531 127.675781 41.144531 C 127.675781 41.144531 127.726562 41.453125 127.617188 41.550781 C 127.410156 41.625 127.207031 41.703125 127.007812 41.777344 C 126.757812 41.871094 126.515625 41.953125 126.277344 42.03125 C 126.117188 42.027344 125.828125 42.003906 125.664062 41.882812 C 125.664062 41.882812 125.679688 42.117188 125.609375 42.238281 C 125.011719 42.414062 124.472656 42.539062 123.992188 42.628906 C 123.898438 42.621094 123.496094 42.582031 123.324219 42.40625 C 123.324219 42.40625 123.296875 42.632812 123.203125 42.753906 C 121.625 42.941406 120.878906 42.695312 120.878906 42.695312 C 121.019531 44.402344 122.953125 44.472656 122.953125 44.472656 C 127.964844 45.113281 132.921875 41.800781 138.457031 38.722656 C 138.757812 38.554688 139.175781 38.316406 139.339844 38.234375 C 145.167969 35.082031 148.832031 35.519531 148.832031 35.519531 C 149.433594 35.539062 149.246094 35.265625 148.601562 35.195312 Z M 148.601562 35.195312 "/>
<path style=" stroke:none;fill-rule:nonzero;fill:rgb(0%,0%,0%);fill-opacity:1;" d="M 144.25 19.003906 C 143.46875 19.148438 142.324219 19.828125 141.980469 20.046875 C 141.632812 20.273438 140.761719 20.882812 140.761719 20.882812 C 140.761719 20.882812 140.714844 20.78125 140.726562 20.71875 C 140.742188 20.652344 140.835938 20.550781 141.15625 20.292969 C 141.46875 20.042969 143.046875 18.789062 143.28125 18.609375 C 143.515625 18.433594 144.566406 17.824219 144.660156 17.679688 C 144.753906 17.539062 144.589844 17.558594 144.304688 17.597656 C 144.011719 17.636719 143.53125 17.773438 142.855469 18.097656 C 142.179688 18.421875 141.347656 19.140625 141.347656 19.140625 L 141.292969 19.285156 C 141.292969 19.285156 141.242188 19.265625 141.054688 19.417969 C 140.863281 19.570312 140.226562 20.136719 140.226562 20.136719 C 140.226562 20.136719 140.183594 20.140625 140.148438 20.101562 C 140.117188 20.058594 140.125 19.957031 140.175781 19.894531 C 140.230469 19.832031 141.039062 18.867188 141.191406 18.695312 C 141.339844 18.519531 142.265625 17.460938 142.335938 17.363281 C 142.410156 17.265625 142.773438 16.820312 142.921875 16.664062 C 143.074219 16.507812 143.082031 16.328125 142.667969 16.460938 C 141.9375 16.695312 140.996094 17.582031 140.675781 17.9375 C 140.351562 18.296875 139.660156 19.140625 139.660156 19.140625 C 139.660156 19.140625 139.546875 19.175781 139.492188 19.171875 C 139.441406 19.167969 139.390625 19.007812 139.441406 18.890625 C 139.488281 18.773438 139.929688 17.992188 140.109375 17.535156 C 140.289062 17.078125 140.660156 16.160156 140.6875 15.964844 C 140.710938 15.765625 140.6875 15.671875 140.527344 15.730469 C 140.371094 15.789062 139.835938 16.214844 139.664062 16.484375 C 139.496094 16.75 138.949219 17.777344 138.859375 17.929688 C 138.761719 18.082031 138.515625 18.332031 138.515625 18.332031 C 138.515625 18.332031 138.566406 17.984375 138.644531 17.765625 C 138.726562 17.550781 138.964844 16.078125 138.988281 15.785156 C 139.015625 15.496094 138.882812 15.558594 138.804688 15.617188 C 138.726562 15.675781 138.261719 16.144531 138.148438 16.34375 C 138.027344 16.539062 137.730469 17.222656 137.667969 17.402344 C 137.605469 17.585938 137.503906 17.277344 137.5 17.152344 C 137.496094 17.027344 137.421875 16.207031 137.378906 16.070312 C 137.335938 15.933594 137.207031 15.988281 137.121094 16.039062 C 137.027344 16.085938 136.78125 16.28125 136.675781 16.402344 C 136.605469 16.488281 136.53125 16.804688 136.433594 17.179688 C 136.378906 16.992188 136.3125 16.757812 136.265625 16.570312 C 136.167969 16.191406 135.988281 16.117188 135.78125 16.234375 C 135.691406 16.285156 135.539062 16.414062 135.386719 16.523438 C 135.355469 16.542969 135.328125 16.566406 135.300781 16.585938 C 135.140625 16.695312 134.996094 16.757812 134.945312 16.65625 C 134.835938 16.441406 134.636719 16.453125 134.359375 16.605469 C 134.082031 16.757812 133.773438 16.992188 133.589844 16.796875 C 133.398438 16.601562 132.960938 17.050781 132.804688 17.324219 C 132.644531 17.605469 132.625 17.617188 132.367188 17.535156 C 132.105469 17.449219 130.859375 17.632812 127.988281 19.464844 C 126.59375 20.351562 125.875 21.046875 125.5 21.53125 C 126.3125 23.53125 127.695312 24.703125 127.808594 24.859375 C 127.925781 25.027344 128.257812 25.242188 128.164062 25.347656 C 128.074219 25.453125 127.714844 25.199219 127.714844 25.199219 C 125.59375 23.890625 124.269531 21.289062 123.839844 20.335938 C 123.6875 20.070312 123.550781 19.796875 123.453125 19.519531 C 122.953125 18.105469 121 17.429688 120.125 16.835938 C 119.496094 16.40625 119.121094 15.980469 118.957031 15.769531 C 118.621094 15.082031 118.246094 14.320312 118.117188 14.054688 C 117.871094 13.542969 116.464844 10.644531 116.367188 10.234375 C 116.269531 9.816406 116.148438 9.605469 115.945312 10.171875 C 115.738281 10.734375 116.066406 12.371094 116.371094 13.042969 C 116.675781 13.71875 117.324219 14.730469 117.324219 14.730469 C 117.324219 14.730469 117.234375 14.847656 117.152344 14.875 C 117.078125 14.90625 116.921875 14.808594 116.738281 14.648438 C 116.554688 14.484375 114.902344 12.570312 114.398438 11.863281 C 113.890625 11.160156 112.34375 9.207031 112.046875 8.804688 C 111.746094 8.40625 111.507812 8.945312 111.617188 9.820312 C 111.726562 10.695312 112.882812 12.109375 113.273438 12.542969 C 113.660156 12.980469 114.75 14.070312 114.75 14.070312 C 114.75 14.070312 114.523438 14.097656 114.386719 14.070312 C 114.25 14.039062 114.046875 13.902344 113.585938 13.496094 C 113.121094 13.089844 110.828125 11.0625 110.511719 10.765625 C 110.191406 10.464844 109.148438 9.171875 108.867188 9.035156 C 108.585938 8.894531 108.589844 9.082031 108.597656 9.402344 C 108.605469 9.722656 108.769531 10.277344 109.296875 11.089844 C 109.816406 11.90625 111.144531 12.988281 111.144531 12.988281 L 112.992188 14.460938 C 112.992188 14.460938 112.992188 14.503906 112.894531 14.53125 C 112.796875 14.558594 112.574219 14.523438 112.457031 14.449219 C 112.335938 14.378906 110.46875 13.253906 110.128906 13.042969 C 109.792969 12.832031 107.75 11.558594 107.558594 11.457031 C 107.367188 11.351562 106.496094 10.839844 106.199219 10.636719 C 105.898438 10.433594 105.515625 10.378906 105.691406 10.859375 C 106 11.703125 107.671875 12.953125 108.359375 13.394531 C 109.046875 13.835938 110.683594 14.800781 110.683594 14.800781 C 110.683594 14.800781 110.734375 14.9375 110.710938 14.988281 C 110.683594 15.046875 110.335938 15.058594 110.09375 14.972656 C 109.851562 14.890625 108.277344 14.207031 107.339844 13.894531 C 106.402344 13.578125 104.515625 12.9375 104.097656 12.859375 C 103.675781 12.78125 103.460938 12.78125 103.554688 12.96875 C 103.640625 13.152344 104.414062 13.839844 104.945312 14.097656 C 105.480469 14.351562 107.558594 15.203125 107.855469 15.347656 C 108.160156 15.488281 108.636719 15.824219 108.636719 15.824219 C 108.636719 15.824219 107.90625 15.675781 107.457031 15.53125 C 107 15.382812 103.882812 14.742188 103.261719 14.632812 C 102.640625 14.527344 102.742188 14.6875 102.851562 14.789062 C 102.957031 14.886719 103.84375 15.507812 104.242188 15.6875 C 104.632812 15.863281 106.027344 16.367188 106.40625 16.484375 C 106.785156 16.59375 106.085938 16.621094 105.816406 16.59375 C 105.546875 16.566406 103.757812 16.429688 103.453125 16.4375 C 103.144531 16.449219 103.226562 16.601562 103.304688 16.710938 C 103.386719 16.820312 103.738281 17.140625 103.976562 17.285156 C 104.214844 17.429688 105.488281 17.710938 106.703125 18.039062 C 105.980469 17.96875 104.570312 18.132812 104.351562 18.1875 C 104.132812 18.242188 103.777344 18.363281 103.75 18.464844 C 103.730469 18.566406 104.082031 18.886719 104.214844 18.976562 C 104.347656 19.066406 104.996094 19.453125 104.996094 19.453125 C 104.996094 19.453125 104.59375 19.53125 104.328125 19.59375 C 104.066406 19.65625 104.089844 19.835938 104.269531 19.996094 C 104.472656 20.183594 105.117188 20.679688 105.117188 20.679688 C 105.117188 20.679688 104.765625 20.78125 104.671875 20.808594 C 103.628906 21.113281 106.375 22.160156 106.234375 22.347656 C 106.054688 22.582031 106.054688 23.265625 106.921875 24.6875 C 107.792969 26.109375 109.296875 27.796875 111.6875 29.277344 C 111.6875 29.277344 111.789062 29.367188 111.972656 29.328125 C 112.148438 29.292969 112.382812 29.292969 112.355469 29.597656 C 112.328125 29.902344 112.738281 30.484375 113.65625 30.699219 C 113.710938 30.710938 113.765625 30.722656 113.824219 30.730469 C 113.832031 30.738281 113.847656 30.742188 113.859375 30.742188 C 113.921875 30.757812 113.960938 30.757812 114.003906 30.75 C 114.867188 30.824219 115.871094 30.554688 116.027344 30.820312 C 116.210938 31.125 115.824219 31.46875 116.488281 31.507812 C 117.152344 31.542969 118.21875 31.234375 118.21875 31.234375 C 118.21875 31.234375 118.476562 31.21875 118.347656 31.414062 C 118.21875 31.613281 118.300781 32.0625 119.164062 31.9375 C 119.824219 31.84375 120.46875 31.402344 121.078125 31.253906 C 121.457031 31.261719 122.042969 31.277344 121.980469 31.316406 C 121.515625 31.613281 116.710938 32.882812 115.890625 33.003906 C 115.167969 33.109375 113.089844 33.035156 112.480469 32.988281 C 111.867188 32.945312 110.261719 32.78125 109.953125 32.734375 C 109.644531 32.683594 109.65625 32.78125 109.683594 32.816406 C 109.710938 32.851562 109.835938 32.921875 110.066406 32.980469 C 110.296875 33.042969 111.195312 33.1875 111.195312 33.1875 C 111.195312 33.1875 110.855469 33.214844 110.585938 33.234375 C 110.316406 33.257812 110.050781 33.25 109.824219 33.269531 C 109.597656 33.292969 108.765625 33.433594 108.617188 33.410156 C 108.46875 33.386719 108.402344 33.433594 108.519531 33.5 C 108.613281 33.554688 109.066406 33.65625 109.234375 33.691406 C 109.136719 33.695312 109.046875 33.703125 108.964844 33.707031 C 108.351562 33.75 107.738281 33.777344 107.558594 33.765625 C 107.382812 33.753906 107.335938 33.832031 107.4375 33.949219 C 107.53125 34.050781 108.113281 34.132812 108.324219 34.152344 C 108.207031 34.179688 108.03125 34.214844 107.871094 34.246094 C 107.609375 34.285156 107.320312 34.320312 107.152344 34.351562 C 106.777344 34.425781 107.121094 34.550781 107.773438 34.535156 C 108.425781 34.523438 108.464844 34.578125 108.328125 34.609375 C 108.1875 34.636719 107.4375 34.859375 107.257812 34.886719 C 107.078125 34.914062 107.160156 35.027344 108.546875 35.011719 C 109.933594 34.996094 112.46875 34.675781 113.882812 34.523438 C 114.058594 34.503906 114.21875 34.488281 114.378906 34.484375 C 114.378906 34.488281 114.378906 34.488281 114.382812 34.488281 C 114.386719 34.488281 114.394531 34.484375 114.398438 34.484375 C 114.96875 34.453125 115.40625 34.488281 115.699219 34.523438 C 115.820312 34.550781 115.941406 34.589844 116.046875 34.640625 C 116.253906 34.746094 115.140625 34.871094 115.035156 34.882812 C 114.929688 34.894531 115.175781 35.042969 115.730469 35.179688 C 116.28125 35.316406 117.359375 35.230469 118.011719 35.179688 C 118.671875 35.128906 118.511719 35.191406 118.457031 35.207031 C 118.40625 35.21875 117.429688 35.53125 117.289062 35.605469 C 117.148438 35.679688 117.238281 35.707031 118.476562 35.695312 C 119.714844 35.679688 121.222656 35.457031 121.546875 35.429688 C 121.863281 35.40625 121.921875 35.390625 121.757812 35.652344 C 121.597656 35.914062 121.082031 36.589844 120.871094 36.855469 C 120.660156 37.117188 121.773438 37.015625 121.949219 37.003906 C 122.128906 36.992188 121.433594 37.378906 121.277344 37.566406 C 121.117188 37.753906 121.222656 37.726562 121.878906 37.566406 C 122.359375 37.449219 123.328125 37.089844 123.8125 36.902344 C 123.8125 36.90625 123.8125 36.90625 123.808594 36.910156 C 123.828125 36.902344 123.851562 36.890625 123.875 36.878906 C 123.953125 36.847656 124.015625 36.824219 124.058594 36.808594 C 124.054688 36.859375 124.035156 37.144531 124.09375 37.332031 C 124.125 37.429688 124.25 37.582031 124.367188 37.726562 C 124.378906 37.738281 124.394531 37.753906 124.40625 37.765625 C 124.496094 37.863281 124.578125 37.953125 124.628906 38.003906 C 124.632812 38.003906 124.636719 38 124.640625 38 C 124.976562 38.308594 125.402344 38.65625 125.515625 38.757812 C 125.671875 38.914062 125.652344 38.8125 125.601562 38.640625 C 125.554688 38.464844 125.628906 38.289062 125.910156 38.5625 C 126.257812 38.898438 126.730469 39.179688 127.023438 39.339844 C 127.308594 39.5 127.457031 39.453125 127.429688 39.304688 C 127.398438 39.160156 127.5 39.046875 127.683594 39.273438 C 127.875 39.496094 128.308594 39.753906 128.445312 39.816406 C 128.582031 39.878906 128.503906 39.523438 128.542969 39.394531 C 128.5625 39.347656 128.585938 39.300781 128.613281 39.257812 C 128.875 39.5 129.507812 39.945312 129.59375 39.734375 C 129.664062 39.558594 129.78125 39.390625 129.859375 39.292969 C 129.859375 39.296875 129.859375 39.300781 129.859375 39.300781 C 129.902344 39.246094 129.933594 39.210938 129.933594 39.210938 C 129.933594 39.210938 130.015625 39.191406 130.085938 39.21875 C 130.09375 39.222656 130.113281 39.226562 130.132812 39.234375 C 130.296875 39.296875 130.578125 39.402344 130.804688 39.519531 C 131.03125 39.636719 131.085938 39.796875 131.101562 39.929688 C 131.109375 40.011719 131.101562 40.082031 131.105469 40.128906 C 131.105469 40.140625 131.113281 40.160156 131.125 40.183594 C 131.117188 40.1875 131.113281 40.1875 131.109375 40.1875 L 131.125 40.183594 C 131.917969 39.929688 132.414062 40.011719 132.710938 40.148438 C 132.878906 40.203125 132.992188 40.3125 133.0625 40.421875 C 133.066406 40.433594 133.070312 40.433594 133.078125 40.4375 C 133.164062 40.574219 133.1875 40.71875 133.183594 40.789062 C 133.253906 40.722656 133.808594 40.152344 133.125 39.730469 C 133.328125 39.648438 133.511719 39.675781 133.726562 40.007812 C 133.957031 40.378906 133.753906 40.574219 133.753906 40.574219 C 133.753906 40.574219 134.324219 40.476562 134.273438 39.859375 C 134.273438 39.859375 134.238281 39.410156 133.394531 39.265625 C 132.015625 39.027344 131.507812 38.863281 131.023438 38.730469 C 130.980469 38.71875 130.941406 38.703125 130.902344 38.691406 C 130.734375 38.648438 130.625 38.613281 130.539062 38.585938 C 130.53125 38.5625 130.492188 38.503906 130.296875 38.371094 C 130.035156 38.1875 129.914062 38.035156 129.828125 37.910156 C 129.820312 37.90625 129.816406 37.894531 129.8125 37.886719 C 129.765625 37.839844 129.722656 37.796875 129.667969 37.742188 C 129.4375 37.515625 129.367188 37.164062 129.371094 36.789062 C 129.363281 36.742188 129.355469 36.691406 129.355469 36.640625 C 129.355469 36.230469 129.59375 35.296875 129.835938 34.507812 C 129.972656 34.421875 130.003906 34.492188 129.785156 35.332031 C 129.675781 35.757812 129.699219 36.175781 129.746094 36.488281 C 129.757812 36.78125 129.808594 36.9375 129.835938 37.007812 C 129.863281 37.046875 129.894531 37.082031 129.929688 37.101562 C 130.1875 37.285156 131.542969 37.960938 131.761719 38.003906 C 131.984375 38.046875 131.996094 37.933594 132.015625 37.882812 C 132.027344 37.851562 132.136719 37.910156 132.269531 38.003906 C 132.265625 38.003906 132.265625 38.007812 132.261719 38.007812 C 132.316406 38.050781 132.378906 38.097656 132.441406 38.152344 C 132.640625 38.320312 133.144531 38.390625 133.230469 38.40625 C 133.253906 38.410156 133.273438 38.394531 133.292969 38.367188 C 133.34375 38.292969 133.386719 38.125 133.433594 38.0625 C 133.492188 37.988281 133.558594 38.09375 133.710938 38.167969 C 133.851562 38.230469 133.941406 38.199219 134.015625 38.125 C 134.023438 38.113281 134.035156 38.105469 134.042969 38.09375 C 134.101562 38.035156 134.285156 37.988281 134.394531 37.96875 C 134.519531 37.914062 134.964844 37.929688 135.101562 37.949219 C 135.113281 37.953125 135.117188 37.957031 135.128906 37.957031 L 135.132812 37.957031 C 135.132812 37.957031 135.140625 37.957031 135.152344 37.964844 C 135.222656 37.984375 135.453125 38.152344 135.449219 38.363281 L 135.453125 38.359375 C 135.453125 38.363281 135.453125 38.367188 135.453125 38.371094 L 135.695312 38.269531 C 135.996094 38.171875 136.480469 38.066406 136.980469 38.164062 C 137.121094 38.195312 137.117188 38.296875 137.101562 38.429688 C 137.101562 38.429688 137.054688 38.652344 136.875 38.753906 C 136.875 38.753906 137.449219 38.628906 137.628906 38.3125 C 137.730469 38.34375 137.894531 38.554688 137.542969 38.792969 C 137.542969 38.792969 138.578125 38.8125 138.222656 38.171875 C 138.160156 37.839844 137.839844 37.644531 137.484375 37.535156 L 137.503906 37.53125 C 137.140625 37.417969 136.75 37.394531 136.570312 37.410156 C 136.449219 37.429688 136.359375 37.441406 136.328125 37.445312 C 136.210938 37.453125 134.898438 37.269531 134.761719 37.238281 C 134.621094 37.207031 134.421875 37.164062 134.1875 37.003906 C 133.953125 36.84375 133.300781 36.007812 133.222656 35.789062 C 133.144531 35.570312 132.542969 34.714844 132.382812 34.480469 C 132.230469 34.242188 131.34375 33.472656 131.148438 33.273438 C 131.136719 33.257812 131.113281 33.242188 131.101562 33.226562 C 130.914062 33.011719 130.65625 32.777344 130.578125 32.703125 C 130.632812 32.613281 130.667969 32.566406 130.671875 32.5625 C 130.792969 32.390625 131.246094 31.945312 131.476562 31.675781 C 131.699219 31.402344 131.832031 31.1875 131.941406 31.09375 C 131.941406 31.09375 132.3125 30.34375 133.179688 30.238281 C 133.179688 30.238281 133.359375 30.179688 133.742188 30.265625 C 134.5625 30.449219 135.234375 30.757812 135.234375 30.757812 C 135.234375 30.757812 135.480469 30.839844 135.613281 30.910156 C 135.738281 30.984375 136.085938 31.089844 136.207031 31.171875 C 136.332031 31.257812 136.96875 32.074219 136.988281 32.121094 C 137.011719 32.167969 137.09375 32.238281 137.027344 32.320312 C 136.988281 32.371094 136.863281 32.484375 136.777344 32.507812 C 136.683594 32.53125 136.820312 32.546875 136.949219 32.53125 C 137.078125 32.515625 137.300781 32.421875 137.714844 32.226562 C 138.125 32.027344 138.121094 31.4375 138.054688 31.179688 C 138.019531 31.027344 137.84375 30.644531 137.847656 30.542969 C 137.851562 30.445312 138.25 30.304688 137.976562 29.644531 C 137.679688 28.925781 136.539062 28.222656 135.9375 27.824219 C 135.355469 27.433594 134.484375 27.011719 134.285156 26.910156 C 134.085938 26.808594 134.027344 26.796875 133.992188 26.746094 L 134.214844 26.710938 C 134.183594 26.707031 134.148438 26.707031 134.113281 26.707031 C 134.164062 26.632812 134.359375 26.457031 134.597656 26.257812 C 135.214844 25.867188 136.203125 25.339844 137.40625 25.011719 C 139.382812 24.476562 138.199219 23.683594 139.796875 22.949219 C 140.351562 22.730469 140.945312 22.5 141.160156 22.414062 C 141.589844 22.246094 144.046875 21.296875 144.414062 21.207031 C 144.78125 21.113281 144.953125 21.039062 144.421875 21.007812 C 143.894531 20.976562 142.445312 21.304688 141.875 21.515625 C 141.296875 21.726562 140.457031 22.132812 140.457031 22.132812 C 140.457031 22.132812 140.34375 22.101562 140.308594 22.070312 C 140.273438 22.039062 140.34375 21.960938 140.472656 21.859375 C 140.597656 21.757812 142.144531 20.800781 142.726562 20.496094 C 143.304688 20.191406 144.894531 19.28125 145.226562 19.101562 C 145.542969 18.90625 145.027344 18.855469 144.25 19.003906 Z M 144.25 19.003906 "/>
</g>
</svg>
